<svg xmlns="http://www.w3.org/2000/svg" width="672" height="320" class="svgbob">
  <style>.svgbob line, .svgbob path, .svgbob circle, .svgbob rect, .svgbob polygon {
  stroke: black;
  stroke-width: 2;
  stroke-opacity: 1;
  fill-opacity: 1;
  stroke-linecap: round;
  stroke-linejoin: miter;
}

.svgbob text {
  white-space: pre;
  fill: black;
  font-family: Iosevka Fixed, monospace;
  font-size: 14px;
}

.svgbob rect.backdrop {
  stroke: none;
  fill: white;
}

.svgbob .broken {
  stroke-dasharray: 8;
}

.svgbob .filled {
  fill: black;
}

.svgbob .bg_filled {
  fill: white;
  stroke-width: 1;
}

.svgbob .nofill {
  fill: white;
}

.svgbob .end_marked_arrow {
  marker-end: url(#arrow);
}

.svgbob .start_marked_arrow {
  marker-start: url(#arrow);
}

.svgbob .end_marked_diamond {
  marker-end: url(#diamond);
}

.svgbob .start_marked_diamond {
  marker-start: url(#diamond);
}

.svgbob .end_marked_circle {
  marker-end: url(#circle);
}

.svgbob .start_marked_circle {
  marker-start: url(#circle);
}

.svgbob .end_marked_open_circle {
  marker-end: url(#open_circle);
}

.svgbob .start_marked_open_circle {
  marker-start: url(#open_circle);
}

.svgbob .end_marked_big_open_circle {
  marker-end: url(#big_open_circle);
}

.svgbob .start_marked_big_open_circle {
  marker-start: url(#big_open_circle);
}

</style>
  <defs>
    <marker id="arrow" viewBox="-2 -2 8 8" refX="4" refY="2" markerWidth="7" markerHeight="7" orient="auto-start-reverse">
      <polygon points="0,0 0,4 4,2 0,0"></polygon>
    </marker>
    <marker id="diamond" viewBox="-2 -2 8 8" refX="4" refY="2" markerWidth="7" markerHeight="7" orient="auto-start-reverse">
      <polygon points="0,2 2,0 4,2 2,4 0,2"></polygon>
    </marker>
    <marker id="circle" viewBox="0 0 8 8" refX="4" refY="4" markerWidth="7" markerHeight="7" orient="auto-start-reverse">
      <circle cx="4" cy="4" r="2" class="filled"></circle>
    </marker>
    <marker id="open_circle" viewBox="0 0 8 8" refX="4" refY="4" markerWidth="7" markerHeight="7" orient="auto-start-reverse">
      <circle cx="4" cy="4" r="2" class="bg_filled"></circle>
    </marker>
    <marker id="big_open_circle" viewBox="0 0 8 8" refX="4" refY="4" markerWidth="7" markerHeight="7" orient="auto-start-reverse">
      <circle cx="4" cy="4" r="3" class="bg_filled"></circle>
    </marker>
  </defs>
  <rect class="backdrop" x="0" y="0" width="672" height="320"></rect>
  <rect x="388" y="120" width="232" height="112" class="solid nofill" rx="0"></rect>
  <rect x="404" y="184" width="200" height="32" class="solid nofill" rx="0"></rect>
  <text x="434" y="204" >GENERATE</text>
  <text x="506" y="204" >SCHEDULE</text>
  <text x="402" y="140" >Target</text>
  <text x="402" y="156" >Target</text>
  <text x="458" y="140" >Month:</text>
  <text x="458" y="156" >Year:</text>
  <text x="514" y="140" >[</text>
  <text x="514" y="156" >[</text>
  <text x="530" y="140" >August</text>
  <text x="530" y="156" >2026</text>
  <text x="586" y="140" >v</text>
  <text x="586" y="156" >v</text>
  <text x="602" y="140" >]</text>
  <text x="602" y="156" >]</text>
  <text x="18" y="28" >HOSPITAL</text>
  <text x="90" y="28" >ROSTER</text>
  <text x="162" y="28" >Master</text>
  <text x="218" y="28" >Schedule</text>
  <text x="306" y="28" >Control</text>
  <text x="370" y="28" >Panel</text>
  <text x="434" y="28" >Settings</text>
  <text x="546" y="28" >[</text>
  <text x="562" y="28" >A.</text>
  <text x="586" y="28" >Mooney</text>
  <text x="642" y="28" >]</text>
  <text x="34" y="268" >Recent</text>
  <text x="90" y="268" >Roster</text>
  <text x="146" y="268" >Status:</text>
  <line x1="32" y1="280" x2="40" y2="280" class="solid"></line>
  <text x="50" y="284" >July</text>
  <text x="90" y="284" >2026:</text>
  <text x="138" y="284" >[</text>
  <text x="154" y="284" >FINALIZED</text>
  <text x="234" y="284" >]</text>
  <line x1="376" y1="280" x2="384" y2="280" class="solid"></line>
  <text x="394" y="284" >Aug</text>
  <text x="426" y="284" >2026:</text>
  <text x="474" y="284" >[</text>
  <text x="490" y="284" >DRAFT</text>
  <text x="538" y="284" >]</text>
  <text x="34" y="76" >ADMINISTRATIVE</text>
  <text x="154" y="76" >CONTROL</text>
  <text x="218" y="76" >PANEL</text>
  <text x="58" y="108" >MANAGE</text>
  <text x="114" y="108" >PHYSICIAN</text>
  <text x="194" y="108" >PROFILES</text>
  <text x="50" y="140" >Name</text>
  <text x="178" y="140" >Role</text>
  <text x="274" y="140" >Status</text>
  <text x="50" y="172" >Jenkins,</text>
  <text x="122" y="172" >S.</text>
  <text x="178" y="172" >Physician</text>
  <text x="274" y="172" >Active</text>
  <text x="50" y="188" >Smith,</text>
  <text x="106" y="188" >J.</text>
  <text x="178" y="188" >Physician</text>
  <text x="274" y="188" >Active</text>
  <text x="50" y="220" >+</text>
  <text x="66" y="220" >Add</text>
  <text x="98" y="220" >New</text>
  <text x="130" y="220" >Physician</text>
  <text x="210" y="220" >Account</text>
  <text x="410" y="108" >GENERATE</text>
  <text x="482" y="108" >NEW</text>
  <text x="514" y="108" >ROSTER</text>
  <g>
    <line x1="4" y1="8" x2="660" y2="8" class="solid"></line>
    <line x1="4" y1="8" x2="4" y2="296" class="solid"></line>
    <line x1="148" y1="8" x2="148" y2="40" class="solid"></line>
    <line x1="292" y1="8" x2="292" y2="40" class="solid"></line>
    <line x1="420" y1="8" x2="420" y2="40" class="solid"></line>
    <line x1="508" y1="8" x2="508" y2="40" class="solid"></line>
    <line x1="660" y1="8" x2="660" y2="296" class="solid"></line>
    <line x1="4" y1="40" x2="660" y2="40" class="solid"></line>
    <line x1="4" y1="296" x2="660" y2="296" class="solid"></line>
  </g>
  <g>
    <line x1="36" y1="120" x2="340" y2="120" class="solid"></line>
    <line x1="36" y1="120" x2="36" y2="232" class="solid"></line>
    <line x1="164" y1="120" x2="164" y2="200" class="solid"></line>
    <line x1="260" y1="120" x2="260" y2="200" class="solid"></line>
    <line x1="340" y1="120" x2="340" y2="232" class="solid"></line>
    <line x1="36" y1="152" x2="340" y2="152" class="solid"></line>
    <line x1="36" y1="200" x2="340" y2="200" class="solid"></line>
    <line x1="36" y1="232" x2="340" y2="232" class="solid"></line>
  </g>
</svg>
