<svg xmlns="http://www.w3.org/2000/svg" width="672" height="432" class="svgbob">
  <style>.svgbob line, .svgbob path, .svgbob circle, .svgbob rect, .svgbob polygon {
  stroke: black;
  stroke-width: 2;
  stroke-opacity: 1;
  fill-opacity: 1;
  stroke-linecap: round;
  stroke-linejoin: miter;
}

.svgbob text {
  white-space: pre;
  fill: black;
  font-family: Iosevka Fixed, monospace;
  font-size: 14px;
}

.svgbob rect.backdrop {
  stroke: none;
  fill: white;
}

.svgbob .broken {
  stroke-dasharray: 8;
}

.svgbob .filled {
  fill: black;
}

.svgbob .bg_filled {
  fill: white;
  stroke-width: 1;
}

.svgbob .nofill {
  fill: white;
}

.svgbob .end_marked_arrow {
  marker-end: url(#arrow);
}

.svgbob .start_marked_arrow {
  marker-start: url(#arrow);
}

.svgbob .end_marked_diamond {
  marker-end: url(#diamond);
}

.svgbob .start_marked_diamond {
  marker-start: url(#diamond);
}

.svgbob .end_marked_circle {
  marker-end: url(#circle);
}

.svgbob .start_marked_circle {
  marker-start: url(#circle);
}

.svgbob .end_marked_open_circle {
  marker-end: url(#open_circle);
}

.svgbob .start_marked_open_circle {
  marker-start: url(#open_circle);
}

.svgbob .end_marked_big_open_circle {
  marker-end: url(#big_open_circle);
}

.svgbob .start_marked_big_open_circle {
  marker-start: url(#big_open_circle);
}

</style>
  <defs>
    <marker id="arrow" viewBox="-2 -2 8 8" refX="4" refY="2" markerWidth="7" markerHeight="7" orient="auto-start-reverse">
      <polygon points="0,0 0,4 4,2 0,0"></polygon>
    </marker>
    <marker id="diamond" viewBox="-2 -2 8 8" refX="4" refY="2" markerWidth="7" markerHeight="7" orient="auto-start-reverse">
      <polygon points="0,2 2,0 4,2 2,4 0,2"></polygon>
    </marker>
    <marker id="circle" viewBox="0 0 8 8" refX="4" refY="4" markerWidth="7" markerHeight="7" orient="auto-start-reverse">
      <circle cx="4" cy="4" r="2" class="filled"></circle>
    </marker>
    <marker id="open_circle" viewBox="0 0 8 8" refX="4" refY="4" markerWidth="7" markerHeight="7" orient="auto-start-reverse">
      <circle cx="4" cy="4" r="2" class="bg_filled"></circle>
    </marker>
    <marker id="big_open_circle" viewBox="0 0 8 8" refX="4" refY="4" markerWidth="7" markerHeight="7" orient="auto-start-reverse">
      <circle cx="4" cy="4" r="3" class="bg_filled"></circle>
    </marker>
  </defs>
  <rect class="backdrop" x="0" y="0" width="672" height="432"></rect>
  <rect x="28" y="104" width="608" height="112" class="solid nofill" rx="0"></rect>
  <text x="42" y="124" >SHIFT</text>
  <text x="90" y="124" >COVERAGE</text>
  <text x="162" y="124" >RULES</text>
  <text x="58" y="156" >Morning</text>
  <text x="122" y="156" >Shift</text>
  <text x="58" y="172" >Evening</text>
  <text x="122" y="172" >Shift</text>
  <text x="58" y="188" >Night</text>
  <text x="106" y="188" >Shift</text>
  <text x="210" y="124" >(Required Physicians per 8-Hour Block)</text>
  <text x="170" y="156" >(07:00 - 15:00):</text>
  <text x="314" y="156" >[ v 2 ^ ]</text>
  <text x="170" y="172" >(15:00 - 23:00):</text>
  <text x="314" y="172" >[ v 1 ^ ]</text>
  <text x="170" y="188" >(23:00 - 07:00):</text>
  <text x="314" y="188" >[ v 1 ^ ]</text>
  <rect x="28" y="248" width="608" height="96" class="solid nofill" rx="0"></rect>
  <text x="42" y="268" >MONTHLY</text>
  <text x="106" y="268" >ALLOCATION</text>
  <text x="194" y="268" >LIMITS</text>
  <text x="322" y="300" >[</text>
  <text x="322" y="316" >[</text>
  <text x="338" y="300" >v</text>
  <text x="338" y="316" >v</text>
  <text x="354" y="300" >15</text>
  <text x="354" y="316" >23</text>
  <text x="378" y="300" >^</text>
  <text x="378" y="316" >^</text>
  <text x="394" y="300" >]</text>
  <text x="394" y="316" >]</text>
  <text x="58" y="300" >Minimum Shifts per Physician:</text>
  <text x="58" y="316" >Maximum Shifts per Physician:</text>
  <text x="18" y="28" >HOSPITAL</text>
  <text x="90" y="28" >ROSTER</text>
  <text x="162" y="28" >Master</text>
  <text x="218" y="28" >Schedule</text>
  <text x="306" y="28" >Control</text>
  <text x="370" y="28" >Panel</text>
  <text x="434" y="28" >Settings</text>
  <text x="546" y="28" >[</text>
  <text x="562" y="28" >A.</text>
  <text x="586" y="28" >Mooney</text>
  <text x="642" y="28" >]</text>
  <text x="26" y="76" >DEPARTMENT</text>
  <text x="114" y="76" >CONFIGURATION</text>
  <text x="226" y="76" >&amp;</text>
  <text x="242" y="76" >STAFFING</text>
  <text x="314" y="76" >RULES</text>
  <text x="146" y="380" >[</text>
  <text x="162" y="380" >UPDATE</text>
  <text x="218" y="380" >CONFIGURATION</text>
  <text x="330" y="380" >]</text>
  <text x="442" y="380" >[</text>
  <text x="458" y="380" >CANCEL</text>
  <text x="514" y="380" >]</text>
  <g>
    <line x1="4" y1="8" x2="660" y2="8" class="solid"></line>
    <line x1="4" y1="8" x2="4" y2="408" class="solid"></line>
    <line x1="148" y1="8" x2="148" y2="40" class="solid"></line>
    <line x1="292" y1="8" x2="292" y2="40" class="solid"></line>
    <line x1="420" y1="8" x2="420" y2="40" class="solid"></line>
    <line x1="508" y1="8" x2="508" y2="40" class="solid"></line>
    <line x1="660" y1="8" x2="660" y2="408" class="solid"></line>
    <line x1="4" y1="40" x2="660" y2="40" class="solid"></line>
    <line x1="4" y1="408" x2="660" y2="408" class="solid"></line>
  </g>
</svg>
