<svg xmlns="http://www.w3.org/2000/svg" width="664" height="416" class="svgbob">
  <style>.svgbob line, .svgbob path, .svgbob circle, .svgbob rect, .svgbob polygon {
  stroke: black;
  stroke-width: 2;
  stroke-opacity: 1;
  fill-opacity: 1;
  stroke-linecap: round;
  stroke-linejoin: miter;
}

.svgbob text {
  white-space: pre;
  fill: black;
  font-family: Iosevka Fixed, monospace;
  font-size: 14px;
}

.svgbob rect.backdrop {
  stroke: none;
  fill: white;
}

.svgbob .broken {
  stroke-dasharray: 8;
}

.svgbob .filled {
  fill: black;
}

.svgbob .bg_filled {
  fill: white;
  stroke-width: 1;
}

.svgbob .nofill {
  fill: white;
}

.svgbob .end_marked_arrow {
  marker-end: url(#arrow);
}

.svgbob .start_marked_arrow {
  marker-start: url(#arrow);
}

.svgbob .end_marked_diamond {
  marker-end: url(#diamond);
}

.svgbob .start_marked_diamond {
  marker-start: url(#diamond);
}

.svgbob .end_marked_circle {
  marker-end: url(#circle);
}

.svgbob .start_marked_circle {
  marker-start: url(#circle);
}

.svgbob .end_marked_open_circle {
  marker-end: url(#open_circle);
}

.svgbob .start_marked_open_circle {
  marker-start: url(#open_circle);
}

.svgbob .end_marked_big_open_circle {
  marker-end: url(#big_open_circle);
}

.svgbob .start_marked_big_open_circle {
  marker-start: url(#big_open_circle);
}

</style>
  <defs>
    <marker id="arrow" viewBox="-2 -2 8 8" refX="4" refY="2" markerWidth="7" markerHeight="7" orient="auto-start-reverse">
      <polygon points="0,0 0,4 4,2 0,0"></polygon>
    </marker>
    <marker id="diamond" viewBox="-2 -2 8 8" refX="4" refY="2" markerWidth="7" markerHeight="7" orient="auto-start-reverse">
      <polygon points="0,2 2,0 4,2 2,4 0,2"></polygon>
    </marker>
    <marker id="circle" viewBox="0 0 8 8" refX="4" refY="4" markerWidth="7" markerHeight="7" orient="auto-start-reverse">
      <circle cx="4" cy="4" r="2" class="filled"></circle>
    </marker>
    <marker id="open_circle" viewBox="0 0 8 8" refX="4" refY="4" markerWidth="7" markerHeight="7" orient="auto-start-reverse">
      <circle cx="4" cy="4" r="2" class="bg_filled"></circle>
    </marker>
    <marker id="big_open_circle" viewBox="0 0 8 8" refX="4" refY="4" markerWidth="7" markerHeight="7" orient="auto-start-reverse">
      <circle cx="4" cy="4" r="3" class="bg_filled"></circle>
    </marker>
  </defs>
  <rect class="backdrop" x="0" y="0" width="664" height="416"></rect>
  <text x="18" y="28" >HOSPITAL</text>
  <text x="90" y="28" >ROSTER</text>
  <text x="162" y="28" >My</text>
  <text x="186" y="28" >Dashboard</text>
  <text x="282" y="28" >My</text>
  <text x="306" y="28" >Schedule</text>
  <text x="394" y="28" >Team</text>
  <text x="434" y="28" >Schedule</text>
  <text x="522" y="28" >[</text>
  <text x="538" y="28" >Dr.</text>
  <text x="570" y="28" >Jenkins</text>
  <text x="634" y="28" >]</text>
  <text x="34" y="348" >Upcoming</text>
  <line x1="32" y1="360" x2="40" y2="360" class="solid"></line>
  <line x1="32" y1="376" x2="40" y2="376" class="solid"></line>
  <text x="34" y="76" >MY</text>
  <text x="58" y="76" >FEBRUARY</text>
  <text x="130" y="76" >2026</text>
  <text x="170" y="76" >SCHEDULE</text>
  <text x="538" y="76" >[</text>
  <text x="554" y="76" >Print</text>
  <text x="602" y="76" >PDF</text>
  <text x="634" y="76" >]</text>
  <text x="34" y="108" >SUN</text>
  <text x="122" y="108" >MON</text>
  <text x="210" y="108" >TUE</text>
  <text x="298" y="108" >WED</text>
  <text x="386" y="108" >THU</text>
  <text x="474" y="108" >FRI</text>
  <text x="562" y="108" >SAT</text>
  <text x="34" y="140" >1</text>
  <text x="122" y="140" >2</text>
  <text x="210" y="140" >3</text>
  <text x="298" y="140" >4</text>
  <text x="386" y="140" >5</text>
  <text x="474" y="140" >6</text>
  <text x="562" y="140" >7</text>
  <text x="34" y="156" >MORNING</text>
  <text x="210" y="156" >EVENING</text>
  <text x="298" y="156" >EVENING</text>
  <text x="386" y="156" >NIGHT</text>
  <text x="34" y="188" >8</text>
  <text x="122" y="188" >9</text>
  <text x="210" y="188" >10</text>
  <text x="298" y="188" >11</text>
  <text x="386" y="188" >12</text>
  <text x="474" y="188" >13</text>
  <text x="562" y="188" >14</text>
  <text x="34" y="204" >MORNING</text>
  <text x="122" y="204" >MORNING</text>
  <text x="210" y="204" >EVENING</text>
  <text x="298" y="204" >EVENING</text>
  <text x="474" y="204" >NIGHT</text>
  <text x="562" y="204" >NIGHT</text>
  <text x="34" y="236" >15</text>
  <text x="122" y="236" >16</text>
  <text x="210" y="236" >17</text>
  <text x="298" y="236" >18</text>
  <text x="386" y="236" >19</text>
  <text x="474" y="236" >20</text>
  <text x="562" y="236" >21</text>
  <text x="122" y="252" >EVENING</text>
  <text x="210" y="252" >EVENING</text>
  <text x="386" y="252" >NIGHT</text>
  <text x="474" y="252" >NIGHT</text>
  <text x="34" y="284" >22</text>
  <line x1="56" y1="272" x2="40" y2="304" class="solid"></line>
  <line x1="72" y1="272" x2="56" y2="304" class="solid"></line>
  <line x1="88" y1="272" x2="72" y2="304" class="solid"></line>
  <line x1="120" y1="272" x2="104" y2="304" class="solid"></line>
  <text x="122" y="284" >23</text>
  <line x1="144" y1="272" x2="128" y2="304" class="solid"></line>
  <line x1="160" y1="272" x2="144" y2="304" class="solid"></line>
  <line x1="176" y1="272" x2="160" y2="304" class="solid"></line>
  <line x1="208" y1="272" x2="192" y2="304" class="solid"></line>
  <text x="210" y="284" >24</text>
  <line x1="232" y1="272" x2="216" y2="304" class="solid"></line>
  <line x1="248" y1="272" x2="232" y2="304" class="solid"></line>
  <line x1="264" y1="272" x2="248" y2="304" class="solid"></line>
  <text x="298" y="284" >25</text>
  <text x="386" y="284" >26</text>
  <text x="474" y="284" >27</text>
  <text x="562" y="284" >28</text>
  <line x1="272" y1="288" x2="264" y2="304" class="solid"></line>
  <text x="298" y="300" >MORNING</text>
  <text x="386" y="300" >MORNING</text>
  <text x="562" y="300" >NIGHT</text>
  <text x="106" y="348" >Shifts:</text>
  <text x="50" y="364" >Mon, Feb 1: Morning (07:00 - 15:00)</text>
  <text x="50" y="380" >Wed, Feb 3: Evening (15:00 - 23:00)</text>
  <g>
    <line x1="4" y1="8" x2="652" y2="8" class="solid"></line>
    <line x1="4" y1="8" x2="4" y2="400" class="solid"></line>
    <line x1="148" y1="8" x2="148" y2="40" class="solid"></line>
    <line x1="268" y1="8" x2="268" y2="40" class="solid"></line>
    <line x1="380" y1="8" x2="380" y2="40" class="solid"></line>
    <line x1="508" y1="8" x2="508" y2="40" class="solid"></line>
    <line x1="652" y1="8" x2="652" y2="400" class="solid"></line>
    <line x1="4" y1="40" x2="652" y2="40" class="solid"></line>
    <line x1="4" y1="400" x2="652" y2="400" class="solid"></line>
  </g>
  <g>
    <line x1="20" y1="88" x2="636" y2="88" class="solid"></line>
    <line x1="20" y1="88" x2="20" y2="312" class="solid"></line>
    <line x1="108" y1="88" x2="108" y2="264" class="solid"></line>
    <line x1="196" y1="88" x2="196" y2="264" class="solid"></line>
    <line x1="284" y1="88" x2="284" y2="312" class="solid"></line>
    <line x1="372" y1="88" x2="372" y2="312" class="solid"></line>
    <line x1="460" y1="88" x2="460" y2="312" class="solid"></line>
    <line x1="548" y1="88" x2="548" y2="312" class="solid"></line>
    <line x1="636" y1="88" x2="636" y2="312" class="solid"></line>
    <line x1="20" y1="120" x2="636" y2="120" class="solid"></line>
    <line x1="20" y1="168" x2="636" y2="168" class="solid"></line>
    <line x1="20" y1="216" x2="636" y2="216" class="solid"></line>
    <line x1="20" y1="264" x2="636" y2="264" class="solid"></line>
    <line x1="108" y1="264" x2="88" y2="304" class="solid"></line>
    <line x1="196" y1="264" x2="176" y2="304" class="solid"></line>
    <line x1="20" y1="312" x2="636" y2="312" class="solid"></line>
  </g>
</svg>
