<svg xmlns="http://www.w3.org/2000/svg" width="664" height="304" class="svgbob">
  <style>.svgbob line, .svgbob path, .svgbob circle, .svgbob rect, .svgbob polygon {
  stroke: black;
  stroke-width: 2;
  stroke-opacity: 1;
  fill-opacity: 1;
  stroke-linecap: round;
  stroke-linejoin: miter;
}

.svgbob text {
  white-space: pre;
  fill: black;
  font-family: Iosevka Fixed, monospace;
  font-size: 14px;
}

.svgbob rect.backdrop {
  stroke: none;
  fill: white;
}

.svgbob .broken {
  stroke-dasharray: 8;
}

.svgbob .filled {
  fill: black;
}

.svgbob .bg_filled {
  fill: white;
  stroke-width: 1;
}

.svgbob .nofill {
  fill: white;
}

.svgbob .end_marked_arrow {
  marker-end: url(#arrow);
}

.svgbob .start_marked_arrow {
  marker-start: url(#arrow);
}

.svgbob .end_marked_diamond {
  marker-end: url(#diamond);
}

.svgbob .start_marked_diamond {
  marker-start: url(#diamond);
}

.svgbob .end_marked_circle {
  marker-end: url(#circle);
}

.svgbob .start_marked_circle {
  marker-start: url(#circle);
}

.svgbob .end_marked_open_circle {
  marker-end: url(#open_circle);
}

.svgbob .start_marked_open_circle {
  marker-start: url(#open_circle);
}

.svgbob .end_marked_big_open_circle {
  marker-end: url(#big_open_circle);
}

.svgbob .start_marked_big_open_circle {
  marker-start: url(#big_open_circle);
}

</style>
  <defs>
    <marker id="arrow" viewBox="-2 -2 8 8" refX="4" refY="2" markerWidth="7" markerHeight="7" orient="auto-start-reverse">
      <polygon points="0,0 0,4 4,2 0,0"></polygon>
    </marker>
    <marker id="diamond" viewBox="-2 -2 8 8" refX="4" refY="2" markerWidth="7" markerHeight="7" orient="auto-start-reverse">
      <polygon points="0,2 2,0 4,2 2,4 0,2"></polygon>
    </marker>
    <marker id="circle" viewBox="0 0 8 8" refX="4" refY="4" markerWidth="7" markerHeight="7" orient="auto-start-reverse">
      <circle cx="4" cy="4" r="2" class="filled"></circle>
    </marker>
    <marker id="open_circle" viewBox="0 0 8 8" refX="4" refY="4" markerWidth="7" markerHeight="7" orient="auto-start-reverse">
      <circle cx="4" cy="4" r="2" class="bg_filled"></circle>
    </marker>
    <marker id="big_open_circle" viewBox="0 0 8 8" refX="4" refY="4" markerWidth="7" markerHeight="7" orient="auto-start-reverse">
      <circle cx="4" cy="4" r="3" class="bg_filled"></circle>
    </marker>
  </defs>
  <rect class="backdrop" x="0" y="0" width="664" height="304"></rect>
  <rect x="28" y="120" width="296" height="96" class="solid nofill" rx="0"></rect>
  <text x="178" y="140" >[</text>
  <text x="178" y="156" >[</text>
  <text x="178" y="172" >[</text>
  <text x="194" y="140" >5</text>
  <text x="194" y="156" >2</text>
  <text x="194" y="172" >0</text>
  <text x="210" y="140" >v</text>
  <text x="210" y="156" >v</text>
  <text x="210" y="172" >v</text>
  <text x="226" y="140" >]</text>
  <text x="226" y="156" >]</text>
  <text x="226" y="172" >]</text>
  <text x="82" y="204" >[</text>
  <text x="98" y="204" >SAVE</text>
  <text x="138" y="204" >PREFERENCES</text>
  <text x="234" y="204" >]</text>
  <text x="42" y="140" >Morning Shift:</text>
  <text x="42" y="156" >Evening Shift:</text>
  <text x="42" y="172" >Night Shift:</text>
  <rect x="372" y="120" width="248" height="96" class="solid nofill" rx="0"></rect>
  <text x="490" y="140" >[</text>
  <text x="490" y="156" >[</text>
  <text x="490" y="172" >[</text>
  <text x="602" y="140" >]</text>
  <text x="602" y="156" >]</text>
  <text x="602" y="172" >]</text>
  <text x="426" y="204" >[</text>
  <text x="442" y="204" >SUBMIT</text>
  <text x="498" y="204" >REQUEST</text>
  <text x="562" y="204" >]</text>
  <text x="506" y="172" >Vacation</text>
  <text x="586" y="172" >v</text>
  <text x="386" y="140" >Start Date:</text>
  <text x="506" y="140" >DD/MM/YYYY</text>
  <text x="386" y="156" >End Date:</text>
  <text x="506" y="156" >DD/MM/YYYY</text>
  <text x="386" y="172" >Type:</text>
  <text x="18" y="28" >HOSPITAL</text>
  <text x="90" y="28" >ROSTER</text>
  <text x="162" y="28" >My</text>
  <text x="186" y="28" >Dashboard</text>
  <text x="282" y="28" >My</text>
  <text x="306" y="28" >Schedule</text>
  <text x="394" y="28" >Team</text>
  <text x="434" y="28" >Schedule</text>
  <text x="522" y="28" >[</text>
  <text x="538" y="28" >Dr.</text>
  <text x="570" y="28" >Jenkins</text>
  <text x="634" y="28" >]</text>
  <text x="26" y="252" >My</text>
  <text x="50" y="252" >Pending</text>
  <text x="114" y="252" >Requests:</text>
  <line x1="24" y1="264" x2="32" y2="264" class="solid"></line>
  <text x="42" y="268" >Aug</text>
  <text x="74" y="268" >9</text>
  <text x="90" y="268" >to</text>
  <text x="114" y="268" >Aug</text>
  <text x="146" y="268" >11:</text>
  <text x="178" y="268" >[</text>
  <text x="194" y="268" >PENDING</text>
  <text x="258" y="268" >]</text>
  <line x1="368" y1="264" x2="376" y2="264" class="solid"></line>
  <text x="386" y="268" >Sep</text>
  <text x="418" y="268" >20</text>
  <text x="442" y="268" >to</text>
  <text x="466" y="268" >Sep</text>
  <text x="498" y="268" >22:</text>
  <text x="530" y="268" >[</text>
  <text x="546" y="268" >APPROVED</text>
  <text x="618" y="268" >]</text>
  <text x="26" y="76" >AVAILABILITY</text>
  <text x="130" y="76" >&amp;</text>
  <text x="146" y="76" >PREFERENCES</text>
  <text x="26" y="108" >Shift</text>
  <text x="74" y="108" >Preference</text>
  <text x="370" y="108" >Request</text>
  <text x="434" y="108" >Time</text>
  <text x="474" y="108" >Off</text>
  <text x="162" y="108" >(0 = Low, 5 = High)</text>
  <g>
    <line x1="4" y1="8" x2="652" y2="8" class="solid"></line>
    <line x1="4" y1="8" x2="4" y2="280" class="solid"></line>
    <line x1="148" y1="8" x2="148" y2="40" class="solid"></line>
    <line x1="268" y1="8" x2="268" y2="40" class="solid"></line>
    <line x1="380" y1="8" x2="380" y2="40" class="solid"></line>
    <line x1="508" y1="8" x2="508" y2="40" class="solid"></line>
    <line x1="652" y1="8" x2="652" y2="280" class="solid"></line>
    <line x1="4" y1="40" x2="652" y2="40" class="solid"></line>
    <line x1="4" y1="280" x2="652" y2="280" class="solid"></line>
  </g>
</svg>
