<svg xmlns="http://www.w3.org/2000/svg" width="672" height="448" class="svgbob">
  <style>.svgbob line, .svgbob path, .svgbob circle, .svgbob rect, .svgbob polygon {
  stroke: black;
  stroke-width: 2;
  stroke-opacity: 1;
  fill-opacity: 1;
  stroke-linecap: round;
  stroke-linejoin: miter;
}

.svgbob text {
  white-space: pre;
  fill: black;
  font-family: Iosevka Fixed, monospace;
  font-size: 14px;
}

.svgbob rect.backdrop {
  stroke: none;
  fill: white;
}

.svgbob .broken {
  stroke-dasharray: 8;
}

.svgbob .filled {
  fill: black;
}

.svgbob .bg_filled {
  fill: white;
  stroke-width: 1;
}

.svgbob .nofill {
  fill: white;
}

.svgbob .end_marked_arrow {
  marker-end: url(#arrow);
}

.svgbob .start_marked_arrow {
  marker-start: url(#arrow);
}

.svgbob .end_marked_diamond {
  marker-end: url(#diamond);
}

.svgbob .start_marked_diamond {
  marker-start: url(#diamond);
}

.svgbob .end_marked_circle {
  marker-end: url(#circle);
}

.svgbob .start_marked_circle {
  marker-start: url(#circle);
}

.svgbob .end_marked_open_circle {
  marker-end: url(#open_circle);
}

.svgbob .start_marked_open_circle {
  marker-start: url(#open_circle);
}

.svgbob .end_marked_big_open_circle {
  marker-end: url(#big_open_circle);
}

.svgbob .start_marked_big_open_circle {
  marker-start: url(#big_open_circle);
}

</style>
  <defs>
    <marker id="arrow" viewBox="-2 -2 8 8" refX="4" refY="2" markerWidth="7" markerHeight="7" orient="auto-start-reverse">
      <polygon points="0,0 0,4 4,2 0,0"></polygon>
    </marker>
    <marker id="diamond" viewBox="-2 -2 8 8" refX="4" refY="2" markerWidth="7" markerHeight="7" orient="auto-start-reverse">
      <polygon points="0,2 2,0 4,2 2,4 0,2"></polygon>
    </marker>
    <marker id="circle" viewBox="0 0 8 8" refX="4" refY="4" markerWidth="7" markerHeight="7" orient="auto-start-reverse">
      <circle cx="4" cy="4" r="2" class="filled"></circle>
    </marker>
    <marker id="open_circle" viewBox="0 0 8 8" refX="4" refY="4" markerWidth="7" markerHeight="7" orient="auto-start-reverse">
      <circle cx="4" cy="4" r="2" class="bg_filled"></circle>
    </marker>
    <marker id="big_open_circle" viewBox="0 0 8 8" refX="4" refY="4" markerWidth="7" markerHeight="7" orient="auto-start-reverse">
      <circle cx="4" cy="4" r="3" class="bg_filled"></circle>
    </marker>
  </defs>
  <rect class="backdrop" x="0" y="0" width="672" height="448"></rect>
  <text x="18" y="28" >HOSPITAL</text>
  <text x="90" y="28" >ROSTER</text>
  <text x="162" y="28" >My</text>
  <text x="186" y="28" >Dashboard</text>
  <text x="282" y="28" >My</text>
  <text x="306" y="28" >Schedule</text>
  <text x="394" y="28" >Team</text>
  <text x="434" y="28" >Schedule</text>
  <text x="530" y="28" >[</text>
  <text x="546" y="28" >Dr.</text>
  <text x="578" y="28" >Jenkins</text>
  <text x="642" y="28" >]</text>
  <text x="26" y="76" >AUGUST</text>
  <text x="82" y="76" >2026</text>
  <text x="122" y="76" >TEAM</text>
  <text x="162" y="76" >COVERAGE</text>
  <text x="538" y="76" >[</text>
  <text x="554" y="76" >Export</text>
  <text x="610" y="76" >PDF</text>
  <text x="642" y="76" >]</text>
  <text x="42" y="124" >DATE</text>
  <text x="114" y="124" >MORNING</text>
  <text x="282" y="124" >EVENING</text>
  <text x="450" y="124" >NIGHT</text>
  <text x="42" y="156" >Aug</text>
  <text x="74" y="156" >01</text>
  <text x="114" y="156" >Sarah</text>
  <text x="282" y="156" >John</text>
  <text x="450" y="156" >Michael</text>
  <text x="42" y="188" >Aug</text>
  <text x="74" y="188" >02</text>
  <text x="114" y="188" >Emily</text>
  <text x="282" y="188" >Sarah,</text>
  <text x="338" y="188" >John</text>
  <text x="450" y="188" >Michael</text>
  <text x="42" y="220" >Aug</text>
  <text x="74" y="220" >03</text>
  <text x="114" y="220" >Jackson,</text>
  <text x="186" y="220" >Emily</text>
  <text x="282" y="220" >Sarah</text>
  <text x="450" y="220" >John</text>
  <text x="42" y="252" >Aug</text>
  <text x="74" y="252" >04</text>
  <text x="114" y="252" >Jackson</text>
  <text x="282" y="252" >Michael</text>
  <text x="450" y="252" >Emily</text>
  <text x="42" y="284" >Aug</text>
  <text x="74" y="284" >05</text>
  <text x="114" y="284" >Sarah,</text>
  <text x="170" y="284" >John</text>
  <text x="282" y="284" >Michael</text>
  <text x="450" y="284" >Jackson</text>
  <text x="42" y="316" >Aug</text>
  <text x="74" y="316" >06</text>
  <text x="114" y="316" >Emily,</text>
  <text x="170" y="316" >Sarah</text>
  <text x="282" y="316" >John</text>
  <text x="450" y="316" >Michael</text>
  <text x="42" y="348" >Aug</text>
  <text x="74" y="348" >07</text>
  <text x="114" y="348" >Jackson,</text>
  <text x="186" y="348" >Emily</text>
  <text x="282" y="348" >Sarah</text>
  <text x="450" y="348" >Michael</text>
  <text x="26" y="396" >[</text>
  <text x="42" y="396" >&lt;</text>
  <text x="58" y="396" >Prev</text>
  <text x="98" y="396" >Week</text>
  <text x="138" y="396" >]</text>
  <text x="522" y="396" >[</text>
  <text x="538" y="396" >Next</text>
  <text x="578" y="396" >Week</text>
  <text x="618" y="396" >&gt;</text>
  <text x="634" y="396" >]</text>
  <g>
    <line x1="4" y1="8" x2="660" y2="8" class="solid"></line>
    <line x1="4" y1="8" x2="4" y2="424" class="solid"></line>
    <line x1="148" y1="8" x2="148" y2="40" class="solid"></line>
    <line x1="268" y1="8" x2="268" y2="40" class="solid"></line>
    <line x1="380" y1="8" x2="380" y2="40" class="solid"></line>
    <line x1="508" y1="8" x2="508" y2="40" class="solid"></line>
    <line x1="660" y1="8" x2="660" y2="424" class="solid"></line>
    <line x1="4" y1="40" x2="660" y2="40" class="solid"></line>
    <line x1="4" y1="424" x2="660" y2="424" class="solid"></line>
  </g>
  <g>
    <line x1="28" y1="104" x2="604" y2="104" class="solid"></line>
    <line x1="28" y1="104" x2="28" y2="360" class="solid"></line>
    <line x1="100" y1="104" x2="100" y2="360" class="solid"></line>
    <line x1="268" y1="104" x2="268" y2="360" class="solid"></line>
    <line x1="436" y1="104" x2="436" y2="360" class="solid"></line>
    <line x1="604" y1="104" x2="604" y2="360" class="solid"></line>
    <line x1="28" y1="136" x2="604" y2="136" class="solid"></line>
    <line x1="28" y1="168" x2="604" y2="168" class="solid"></line>
    <line x1="28" y1="200" x2="604" y2="200" class="solid"></line>
    <line x1="28" y1="232" x2="604" y2="232" class="solid"></line>
    <line x1="28" y1="264" x2="604" y2="264" class="solid"></line>
    <line x1="28" y1="296" x2="604" y2="296" class="solid"></line>
    <line x1="28" y1="328" x2="604" y2="328" class="solid"></line>
    <line x1="28" y1="360" x2="604" y2="360" class="solid"></line>
  </g>
</svg>
